<svg width="24" height="25" viewBox="0 0 24 25" fill="none" xmlns="http://www.w3.org/2000/svg">
<path fill-rule="evenodd" clip-rule="evenodd" d="M3.1875 3.75C3.08395 3.75 3 3.83395 3 3.9375V10.3125C3 10.4161 3.08395 10.5 3.1875 10.5H9.5625C9.66605 10.5 9.75 10.4161 9.75 10.3125V3.9375C9.75 3.83395 9.66605 3.75 9.5625 3.75H3.1875ZM1.5 3.9375C1.5 3.00552 2.25552 2.25 3.1875 2.25H9.5625C10.4945 2.25 11.25 3.00552 11.25 3.9375V10.3125C11.25 11.2445 10.4945 12 9.5625 12H3.1875C2.25552 12 1.5 11.2445 1.5 10.3125V3.9375Z" fill="white"/>
<path fill-rule="evenodd" clip-rule="evenodd" d="M14.4375 3.75C14.3339 3.75 14.25 3.83395 14.25 3.9375V10.3125C14.25 10.4161 14.3339 10.5 14.4375 10.5H20.8125C20.9161 10.5 21 10.4161 21 10.3125V3.9375C21 3.83395 20.9161 3.75 20.8125 3.75H14.4375ZM12.75 3.9375C12.75 3.00552 13.5055 2.25 14.4375 2.25H20.8125C21.7445 2.25 22.5 3.00552 22.5 3.9375V10.3125C22.5 11.2445 21.7445 12 20.8125 12H14.4375C13.5055 12 12.75 11.2445 12.75 10.3125V3.9375Z" fill="white"/>
<path fill-rule="evenodd" clip-rule="evenodd" d="M3.1875 15C3.08395 15 3 15.0839 3 15.1875V21.5625C3 21.6661 3.08395 21.75 3.1875 21.75H9.5625C9.66605 21.75 9.75 21.6661 9.75 21.5625V15.1875C9.75 15.0839 9.66605 15 9.5625 15H3.1875ZM1.5 15.1875C1.5 14.2555 2.25552 13.5 3.1875 13.5H9.5625C10.4945 13.5 11.25 14.2555 11.25 15.1875V21.5625C11.25 22.4945 10.4945 23.25 9.5625 23.25H3.1875C2.25552 23.25 1.5 22.4945 1.5 21.5625V15.1875Z" fill="white"/>
<path fill-rule="evenodd" clip-rule="evenodd" d="M14.4375 15C14.3339 15 14.25 15.0839 14.25 15.1875V21.5625C14.25 21.6661 14.3339 21.75 14.4375 21.75H20.8125C20.9161 21.75 21 21.6661 21 21.5625V15.1875C21 15.0839 20.9161 15 20.8125 15H14.4375ZM12.75 15.1875C12.75 14.2555 13.5055 13.5 14.4375 13.5H20.8125C21.7445 13.5 22.5 14.2555 22.5 15.1875V21.5625C22.5 22.4945 21.7445 23.25 20.8125 23.25H14.4375C13.5055 23.25 12.75 22.4945 12.75 21.5625V15.1875Z" fill="white"/>
</svg>
