<svg width="22" height="21" viewBox="0 0 22 21" fill="none" xmlns="http://www.w3.org/2000/svg">
<path d="M19.6185 17.5125H19.5805L19.5425 17.5088C19.4137 17.4953 19.2875 17.4638 19.1675 17.415L16.5079 16.4723L16.4891 16.4644C16.4316 16.4395 16.3694 16.4272 16.3068 16.4283C16.2474 16.4281 16.1884 16.4388 16.1329 16.4597C16.0696 16.4836 15.4874 16.7025 14.8757 16.8703C14.5443 16.9613 13.3907 17.258 12.4649 17.258C10.0986 17.258 7.88613 16.3486 6.23566 14.6972C5.42985 13.8962 4.79082 12.9434 4.35554 11.8939C3.92026 10.8444 3.69736 9.71901 3.69973 8.58282C3.7003 7.99004 3.76426 7.39903 3.89051 6.81985C4.30207 4.91719 5.39332 3.18516 6.96269 1.94485C8.57273 0.682558 10.5601 -0.00234974 12.606 6.05693e-06C15.0533 6.05693e-06 17.3338 0.937506 19.0279 2.63344C20.6291 4.23985 21.5066 6.35204 21.4996 8.58047C21.4996 10.2372 21.0045 11.8562 20.0779 13.2295L20.0521 13.2656C20.0347 13.2886 20.0183 13.3125 20.0029 13.3383C19.9808 13.3767 19.9654 13.4081 19.956 13.432L20.6933 16.0533C20.72 16.1434 20.737 16.2361 20.7439 16.3298V16.3875C20.7439 16.5353 20.7148 16.6816 20.6583 16.8181C20.6017 16.9547 20.5188 17.0787 20.4143 17.1832C20.3098 17.2876 20.1857 17.3705 20.0491 17.427C19.9126 17.4835 19.7663 17.5126 19.6185 17.5125ZM17.045 15.0727L19.0574 15.7856L18.4785 13.7288C18.3847 13.3884 18.4611 13.0017 18.7082 12.5784L18.7129 12.5709C18.7529 12.5037 18.7964 12.4386 18.8432 12.3759C19.5961 11.2525 19.9981 9.93056 19.9982 8.57813C20.0043 6.75001 19.2814 5.01563 17.9638 3.69282C16.5547 2.2786 14.6544 1.50001 12.606 1.50001C9.11191 1.50001 6.06316 3.87141 5.35629 7.13813C5.25276 7.6129 5.20027 8.09737 5.19973 8.58329C5.19973 12.54 8.45894 15.7594 12.4654 15.7594C13.0527 15.7594 13.9185 15.5794 14.481 15.4252C15.035 15.2733 15.5811 15.0666 15.606 15.0581C16.0716 14.882 16.5864 14.8872 17.0483 15.0727H17.045Z" fill="white"/>
<path d="M2.36992 20.9999C2.11347 20.9996 1.86466 20.9125 1.66398 20.7528L1.64945 20.7411C1.49536 20.6119 1.37873 20.4437 1.31171 20.2541C1.24469 20.0645 1.22971 19.8604 1.26836 19.663C1.40242 18.9664 1.68461 17.496 1.79054 16.9518V16.9489C1.00925 15.785 0.564903 14.4277 0.506585 13.0271C0.448266 11.6264 0.778247 10.2369 1.46008 9.01206C1.5568 8.83802 1.7187 8.70952 1.91016 8.65484C2.10162 8.60016 2.30697 8.62378 2.48101 8.7205C2.65506 8.81722 2.78356 8.97912 2.83824 9.17059C2.89292 9.36205 2.8693 9.56739 2.77258 9.74144C2.22181 10.7244 1.95508 11.841 2.00218 12.9668C2.04928 14.0925 2.40835 15.183 3.03929 16.1164L3.04211 16.1207C3.21508 16.3818 3.38054 16.6982 3.30039 17.068C3.28117 17.1618 3.06601 18.2746 2.87383 19.2786L4.87492 18.4953C5.23497 18.3526 5.63675 18.3573 5.99336 18.5085C6.84883 18.8403 7.73664 19.0157 8.56211 19.0157H8.56914C9.7518 19.0141 10.9131 18.7004 11.9357 18.1063C12.0211 18.057 12.1153 18.0251 12.213 18.0122C12.3107 17.9994 12.4099 18.0059 12.5051 18.0315C12.6003 18.057 12.6895 18.101 12.7676 18.161C12.8458 18.221 12.9114 18.2959 12.9606 18.3812C13.0099 18.4666 13.0418 18.5608 13.0547 18.6585C13.0675 18.7562 13.061 18.8554 13.0354 18.9506C13.0099 19.0458 12.9659 19.135 12.9059 19.2131C12.8459 19.2913 12.7711 19.3569 12.6857 19.4061C11.4335 20.1317 10.0121 20.5141 8.56492 20.5147H8.55601C7.54351 20.5147 6.46351 20.3024 5.4332 19.9011L5.41258 19.8927L2.79226 20.9164C2.65954 20.9719 2.51706 21.0003 2.3732 20.9999H2.36992ZM2.74164 19.9443C2.74164 19.9443 2.74164 19.9443 2.74164 19.948C2.74164 19.9518 2.74117 19.9452 2.74164 19.9443ZM1.83133 16.7446C1.83133 16.7497 1.83133 16.7549 1.82805 16.76C1.82945 16.753 1.83039 16.7478 1.83133 16.7446Z" fill="white"/>
</svg>
