<svg width="180" height="85" viewBox="0 0 180 85" fill="none" xmlns="http://www.w3.org/2000/svg">
<path d="M7.90698 54.4884C12.6887 65.6575 23.819 73.4925 36.7904 73.4925C32.0087 62.3186 20.8784 54.4884 7.90698 54.4884Z" fill="#12B36A"/>
<path d="M36.7931 73.492C46.322 73.492 54.5267 67.8552 58.2286 59.7522C48.702 59.7522 40.4975 65.389 36.7931 73.492Z" fill="#12B36A"/>
<path fill-rule="evenodd" clip-rule="evenodd" d="M36.793 57.873C49.7913 57.873 60.3291 47.3865 60.3291 34.4457C60.3291 21.5099 49.7913 11.0186 36.793 11.0186C23.7921 11.0186 13.2568 21.5099 13.2568 34.4457C13.2568 47.3865 23.7921 57.873 36.793 57.873ZM36.793 46.161C43.2909 46.161 48.5597 40.9164 48.5597 34.4461C48.5597 27.9758 43.2909 22.7337 36.793 22.7337C30.2924 22.7337 25.0236 27.9758 25.0236 34.4461C25.0236 40.9164 30.2924 46.161 36.793 46.161Z" fill="#FEBE10"/>
<path d="M84.16 56.96L81.76 59.8C80.9333 59.0267 79.9867 58.64 78.92 58.64C78.3333 58.64 77.8667 58.7733 77.52 59.04C77.2 59.28 77.04 59.6133 77.04 60.04C77.04 60.7333 77.56 61.2533 78.6 61.6L79.76 61.96C82.0267 62.68 83.4933 63.5067 84.16 64.44C84.7467 65.24 85.04 66.2 85.04 67.32C85.04 69.08 84.4 70.5467 83.12 71.72C81.7867 72.9467 80.0533 73.56 77.92 73.56C75.2267 73.56 72.9867 72.6 71.2 70.68L73.76 67.72C74.9067 69.0533 76.1867 69.72 77.6 69.72C78.2933 69.72 78.8667 69.56 79.32 69.24C79.7733 68.8933 80 68.4267 80 67.84C80 67.04 79.4933 66.4533 78.48 66.08L77.36 65.68C75.6267 65.0667 74.3867 64.3733 73.64 63.6C72.76 62.6667 72.32 61.56 72.32 60.28C72.32 58.68 72.92 57.3733 74.12 56.36C75.16 55.5333 76.6667 55.12 78.64 55.12C80.72 55.12 82.56 55.7333 84.16 56.96ZM88.4919 73V55.68H93.3719V57.64C94.7052 55.96 96.4252 55.12 98.5319 55.12C101.119 55.12 102.945 56.1733 104.012 58.28C105.319 56.1733 107.172 55.12 109.572 55.12C111.599 55.12 113.159 55.8267 114.252 57.24C114.759 57.9067 115.079 58.6 115.212 59.32C115.372 60.04 115.452 60.9733 115.452 62.12V73H110.572V63.56C110.572 61.9333 110.305 60.8 109.772 60.16C109.292 59.5733 108.625 59.28 107.772 59.28C106.545 59.28 105.652 59.7867 105.092 60.8C104.639 61.5467 104.412 62.6667 104.412 64.16V73H99.5319V63.56C99.5319 61.9333 99.2652 60.8 98.7319 60.16C98.2519 59.5733 97.5852 59.28 96.7319 59.28C95.5052 59.28 94.6119 59.7867 94.0519 60.8C93.5985 61.5467 93.3719 62.6667 93.3719 64.16V73H88.4919ZM133.373 57.92V55.68H138.253V73H133.373V70.76C132.067 72.6267 130.293 73.56 128.053 73.56C125.44 73.56 123.307 72.6667 121.653 70.88C120.027 69.0933 119.213 66.9067 119.213 64.32C119.213 61.7067 120.013 59.52 121.613 57.76C123.213 56 125.28 55.12 127.813 55.12C130.32 55.12 132.173 56.0533 133.373 57.92ZM132.493 60.84C131.587 59.9067 130.44 59.44 129.053 59.44C127.667 59.44 126.52 59.9067 125.613 60.84C124.707 61.7733 124.253 62.9333 124.253 64.32C124.253 65.7067 124.707 66.88 125.613 67.84C126.52 68.7733 127.667 69.24 129.053 69.24C130.44 69.24 131.587 68.7733 132.493 67.84C133.4 66.88 133.853 65.7067 133.853 64.32C133.853 62.9333 133.4 61.7733 132.493 60.84ZM142.906 73V55.68H147.786V58.28C148.373 57.16 149.093 56.36 149.946 55.88C150.746 55.3733 151.706 55.12 152.826 55.12C153.466 55.12 154.159 55.2533 154.906 55.52L154.266 60.08C153.653 59.6533 152.893 59.44 151.986 59.44C150.573 59.44 149.493 59.9067 148.746 60.84C148.106 61.64 147.786 62.92 147.786 64.68V73H142.906ZM166.81 59.84H163.45V73H158.57V59.84H156.65V55.68H158.57V49.76H163.45V55.68H166.81V59.84Z" fill="#003C96"/>
<path d="M122.448 26.5032H126.894V44.4956H122.448V37.4885H114.684V44.4956H110.238V26.5032H114.684V33.1341H122.448V26.5032ZM128.989 30.9662H134.525V44.4956H138.971V30.9662H144.44V26.5032H128.989V30.9662ZM166 40.5822V44.4067C165.242 44.8027 164.295 45 163.189 45C160.879 45 159.716 43.9507 159.25 42.2607L159.177 42.3738C157.832 44.1366 155.971 45 153.558 45C151.247 45 149.282 44.1008 147.628 42.2653C146.008 40.4299 145.182 38.1626 145.182 35.4995C145.182 32.8386 146.008 30.6071 147.628 28.7717C149.282 26.9373 151.247 26 153.558 26C155.864 26 157.666 26.7919 158.995 28.4045V26.5044H163.441V39.2316C163.441 40.319 163.915 40.8789 164.863 40.8789C165.306 40.8778 165.685 40.7796 166 40.5822ZM159.177 35.4982C159.177 34.0252 158.729 32.8016 157.798 31.8654C156.902 30.8946 155.764 30.4259 154.385 30.4259C153.006 30.4259 151.869 30.8934 150.972 31.8654C150.076 32.8016 149.628 34.0252 149.628 35.4982C149.628 36.9748 150.076 38.1984 150.972 39.1704C151.869 40.1054 153.006 40.573 154.385 40.573C155.764 40.573 156.902 40.1054 157.798 39.1704C158.729 38.1984 159.177 36.9748 159.177 35.4982ZM73.606 26.5032L73.4733 33.2634C73.4423 36.0004 73.3473 37.3522 72.968 38.9003C72.6207 40.3848 71.9573 40.8039 70.9167 40.8039C70.5684 40.8039 70.2532 40.7704 70 40.6711V44.4956C70.3472 44.693 70.9166 44.7911 71.6742 44.7911C74.8002 44.693 76.3163 43.153 77.0749 40.3836C77.6112 38.4051 77.7063 36.8881 77.8014 34.6141L77.9009 30.9649H83.4222V44.4945H87.8686V26.5021H73.606V26.5032ZM95.021 36.7139C95.4997 39.7845 97.8318 40.79 100.198 40.79C101.766 40.79 103.41 40.1504 104.42 39.1935L107.163 42.0737C105.525 43.9669 103.245 45 100.129 45C95.7662 45 90.5037 42.3115 90.5037 35.4995C90.5037 28.6886 95.5716 26 99.8754 26C105.319 26 107.572 28.6701 107.572 31.6634C107.573 36.5569 101.615 38.8172 95.021 36.7139ZM102.745 32.1932C102.745 30.7976 101.422 30.1742 99.9406 30.1742C97.6771 30.1742 95.7154 31.1716 95.1193 33.739C99.7316 35.1301 102.745 34.0922 102.745 32.1932Z" fill="#003C96"/>
</svg>
