<svg width="890" height="890" viewBox="0 0 890 890" fill="none" xmlns="http://www.w3.org/2000/svg">
<g clip-path="url(#clip0_250_7036)">
<g clip-path="url(#clip1_250_7036)">
<rect width="127.143" height="127.143" transform="translate(381.429) rotate(90)" fill="#003C96"/>
<path d="M381.429 -4.85552e-05C364.568 -4.78182e-05 348.399 6.69764 336.477 18.6196C324.555 30.5415 317.857 46.7112 317.857 63.5714C317.857 80.4316 324.555 96.6012 336.477 108.523C348.399 120.445 364.568 127.143 381.429 127.143L381.429 -4.85552e-05Z" fill="#001E64"/>
<path d="M254.286 127.143C271.146 127.143 287.316 120.445 299.238 108.523C311.16 96.6013 317.857 80.4316 317.857 63.5714C317.857 46.7112 311.16 30.5416 299.238 18.6196C287.316 6.69768 271.146 -7.66325e-06 254.286 -1.3894e-05L254.286 127.143Z" fill="#FFB900"/>
</g>
<g clip-path="url(#clip2_250_7036)">
<rect width="127.143" height="127.143" transform="translate(508.571 508.571) rotate(-90)" fill="#003C96"/>
<path d="M508.571 508.571C525.432 508.571 541.601 501.874 553.523 489.952C565.445 478.03 572.143 461.86 572.143 445C572.143 428.14 565.445 411.97 553.523 400.048C541.601 388.126 525.432 381.428 508.571 381.428L508.571 508.571Z" fill="#001E64"/>
<path d="M635.714 381.428C618.854 381.428 602.684 388.126 590.762 400.048C578.84 411.97 572.143 428.14 572.143 445C572.143 461.86 578.84 478.03 590.762 489.952C602.684 501.874 618.854 508.571 635.714 508.571L635.714 381.428Z" fill="#FFB900"/>
</g>
<g clip-path="url(#clip3_250_7036)">
<rect width="127.143" height="127.143" transform="translate(381.429)" fill="#003C96"/>
<path fill-rule="evenodd" clip-rule="evenodd" d="M381.429 22.1763C399.383 8.27399 421.915 -3.78789e-06 446.379 -2.71851e-06C469.607 -1.70321e-06 491.092 7.45844 508.572 20.111C490.618 34.0134 468.086 42.2874 443.621 42.2874C420.393 42.2874 398.908 34.8289 381.429 22.1763Z" fill="#00BE64"/>
<path fill-rule="evenodd" clip-rule="evenodd" d="M381.429 64.5573C399.383 50.655 421.915 42.381 446.379 42.381C469.607 42.381 491.092 49.8394 508.572 62.492C490.618 76.3944 468.086 84.6684 443.621 84.6684C420.393 84.6684 398.908 77.2099 381.429 64.5573Z" fill="white"/>
<path fill-rule="evenodd" clip-rule="evenodd" d="M381.429 106.938C399.383 93.036 421.915 84.762 446.379 84.762C469.607 84.762 491.092 92.2204 508.572 104.873C490.618 118.775 468.086 127.049 443.621 127.049C420.393 127.049 398.908 119.591 381.429 106.938Z" fill="#001E64"/>
</g>
<g clip-path="url(#clip4_250_7036)">
<rect width="127.143" height="127.143" transform="translate(508.571)" fill="#003C96"/>
<path fill-rule="evenodd" clip-rule="evenodd" d="M572.143 127.143C607.252 127.143 635.714 98.6872 635.714 63.5713C635.714 28.4692 607.252 0 572.143 0C537.028 0 508.571 28.4692 508.571 63.5713C508.571 98.6872 537.028 127.143 572.143 127.143ZM572.143 95.3617C589.694 95.3617 603.925 81.1301 603.925 63.5725C603.925 46.0149 589.694 31.7898 572.143 31.7898C554.585 31.7898 540.354 46.0149 540.354 63.5725C540.354 81.1301 554.585 95.3617 572.143 95.3617Z" fill="white"/>
</g>
<g clip-path="url(#clip5_250_7036)">
<rect width="127.143" height="127.143" transform="translate(0 254.286)" fill="#001E64"/>
<path fill-rule="evenodd" clip-rule="evenodd" d="M63.5716 381.429C98.6803 381.429 127.143 352.973 127.143 317.857C127.143 282.755 98.6803 254.286 63.5716 254.286C28.4561 254.286 0 282.755 0 317.857C0 352.973 28.4561 381.429 63.5716 381.429ZM63.5716 349.647C81.1226 349.647 95.3536 335.416 95.3536 317.858C95.3536 300.301 81.1226 286.076 63.5716 286.076C46.0134 286.076 31.7822 300.301 31.7822 317.858C31.7822 335.416 46.0134 349.647 63.5716 349.647Z" fill="#00BE64"/>
</g>
<rect width="127.143" height="127.143" transform="translate(0 127.143)" fill="#003C96"/>
<path d="M64.2812 164.94C68.1147 161.508 73.117 159.675 78.2601 159.818C83.4032 159.96 88.2965 162.067 91.9344 165.705C95.5692 169.339 97.6762 174.226 97.8234 179.364C97.9706 184.502 96.147 189.502 92.7262 193.338L64.2745 221.83L35.8295 193.338C32.4047 189.5 30.5793 184.496 30.7281 179.354C30.8768 174.212 32.9884 169.322 36.6293 165.688C40.2702 162.054 45.1642 159.951 50.3065 159.812C55.4488 159.673 60.4492 161.508 64.2812 164.94Z" fill="#FF7500"/>
<g clip-path="url(#clip6_250_7036)">
<rect width="127.143" height="127.143" transform="translate(127.143 127.143)" fill="#001E64"/>
<path fill-rule="evenodd" clip-rule="evenodd" d="M127.696 254.334C132.124 222.747 146.676 192.331 171.284 168.344C194.648 145.57 223.572 132.006 253.56 127.594C249.132 159.182 234.58 189.597 209.972 213.584C186.608 236.358 157.684 249.923 127.696 254.334Z" fill="#FF7500"/>
</g>
<g clip-path="url(#clip7_250_7036)">
<rect width="127.143" height="127.143" transform="translate(635.714 635.714)" fill="#001E64"/>
<path fill-rule="evenodd" clip-rule="evenodd" d="M636.268 762.906C666.255 758.494 695.179 744.93 718.543 722.155C743.151 698.168 757.703 667.753 762.131 636.165C732.143 640.577 703.219 654.141 679.855 676.916C655.247 700.903 640.696 731.318 636.268 762.906Z" fill="#FF7500"/>
</g>
<rect width="127.143" height="127.143" transform="translate(508.571 254.286)" fill="#003C96"/>
<path fill-rule="evenodd" clip-rule="evenodd" d="M575.921 274.143C575.921 271.759 573.988 269.826 571.603 269.826C569.219 269.826 567.286 271.759 567.286 274.143V282.778C567.286 285.162 569.219 287.095 571.603 287.095C573.988 287.095 575.921 285.162 575.921 282.778V274.143ZM575.921 352.935C575.921 350.551 573.988 348.618 571.603 348.618C569.219 348.618 567.286 350.551 567.286 352.935V361.57C567.286 363.955 569.219 365.888 571.603 365.888C573.988 365.888 575.921 363.955 575.921 361.57V352.935ZM602.905 318.397C602.905 316.012 604.838 314.079 607.222 314.079H615.857C618.242 314.079 620.175 316.012 620.175 318.397C620.175 320.781 618.242 322.714 615.857 322.714H607.222C604.838 322.714 602.905 320.781 602.905 318.397ZM528.428 314.079C526.044 314.079 524.111 316.012 524.111 318.397C524.111 320.781 526.044 322.714 528.428 322.714H537.063C539.448 322.714 541.381 320.781 541.381 318.397C541.381 316.012 539.448 314.079 537.063 314.079H528.428ZM537.957 284.044C539.644 282.358 542.377 282.358 544.063 284.044L550.169 290.15C551.855 291.836 551.855 294.569 550.169 296.255C548.483 297.941 545.749 297.941 544.063 296.255L537.957 290.15C536.271 288.463 536.271 285.73 537.957 284.044ZM538.328 345.197C536.642 346.883 536.642 349.617 538.328 351.303C540.014 352.989 542.748 352.989 544.434 351.303L550.539 345.197C552.225 343.511 552.225 340.778 550.539 339.092C548.853 337.405 546.12 337.405 544.434 339.092L538.328 345.197ZM593.375 296.256C591.689 294.57 591.689 291.836 593.375 290.15L599.481 284.044C601.167 282.358 603.901 282.358 605.587 284.044C607.273 285.73 607.273 288.464 605.587 290.15L599.481 296.256C597.795 297.942 595.062 297.942 593.375 296.256ZM600.19 339.091C598.504 337.405 595.771 337.405 594.085 339.091C592.399 340.777 592.399 343.511 594.085 345.197L600.19 351.303C601.877 352.989 604.61 352.989 606.296 351.303C607.982 349.617 607.982 346.883 606.296 345.197L600.19 339.091Z" fill="#FFB900"/>
<circle cx="572.143" cy="317.858" r="25.3651" fill="#FF7500"/>
<rect width="127.143" height="127.143" transform="translate(254.286 254.286)" fill="#003C96"/>
<path d="M356 307.262C356 314.666 353.804 321.904 349.691 328.061C345.577 334.217 339.731 339.015 332.89 341.849C326.049 344.682 318.522 345.424 311.26 343.979C303.998 342.535 297.328 338.969 292.092 333.734C286.856 328.498 283.291 321.828 281.846 314.566C280.402 307.304 281.143 299.776 283.977 292.936C286.81 286.095 291.609 280.248 297.765 276.135C303.921 272.021 311.159 269.826 318.564 269.826V307.262H356Z" fill="white"/>
<path fill-rule="evenodd" clip-rule="evenodd" d="M299.295 366.72C304.464 366.72 308.654 362.53 308.654 357.361C308.654 352.192 304.464 348.002 299.295 348.002C294.126 348.002 289.935 352.192 289.935 357.361C289.935 362.53 294.126 366.72 299.295 366.72ZM337.832 366.72C343.001 366.72 347.192 362.53 347.192 357.361C347.192 352.192 343.001 348.002 337.832 348.002C332.664 348.002 328.473 352.192 328.473 357.361C328.473 362.53 332.664 366.72 337.832 366.72Z" fill="#FF7500"/>
<rect width="127.143" height="127.143" transform="translate(635.714 254.286)" fill="#001E64"/>
<circle cx="699.286" cy="317.857" r="29.6667" fill="#003C96"/>
<rect width="127.143" height="127.143" transform="translate(381.429 381.429)" fill="#003C96"/>
<circle cx="445" cy="445" r="29.6667" fill="#001E64"/>
<rect width="127.143" height="127.143" transform="translate(635.714 762.857)" fill="#003C96"/>
<circle cx="699.286" cy="826.429" r="29.6667" fill="#00BE64"/>
<rect width="127.143" height="127.143" transform="translate(0 381.429)" fill="#003C96"/>
<circle cx="63.5714" cy="445" r="29.6667" fill="white"/>
<rect width="127.143" height="127.143" transform="translate(127.143 381.429)" fill="#003C96"/>
<circle cx="190.714" cy="445" r="29.6667" fill="white"/>
<rect width="127.143" height="127.143" transform="translate(127.143 635.714)" fill="#001E64"/>
<circle cx="190.714" cy="699.286" r="29.6667" fill="white"/>
<rect width="127.143" height="127.143" transform="translate(127.143 762.857)" fill="#001E64"/>
<circle cx="229.564" cy="801.706" r="2.11905" fill="#FFB900"/>
<path fill-rule="evenodd" clip-rule="evenodd" d="M151.159 830.648C162.692 817.768 179.318 809.604 191.248 819.564C204.295 809.68 220.542 817.644 231.683 830.354C221.877 838.783 207.399 844.115 191.248 844.115C175.286 844.115 160.957 838.906 151.159 830.648Z" fill="#AA2332"/>
<g clip-path="url(#clip8_250_7036)">
<rect width="127.143" height="127.143" transform="translate(635.714)" fill="#003C96"/>
<path fill-rule="evenodd" clip-rule="evenodd" d="M658.595 127.143C644.693 109.189 636.419 86.6568 636.419 62.1922C636.419 38.9647 643.877 17.4792 656.53 0C670.432 17.9539 678.706 40.4861 678.706 64.9507C678.706 88.1782 671.248 109.664 658.595 127.143Z" fill="#001E64"/>
<path fill-rule="evenodd" clip-rule="evenodd" d="M700.272 127.143C686.369 109.189 678.095 86.6568 678.095 62.1922C678.095 38.9647 685.554 17.4792 698.206 0C712.109 17.9539 720.383 40.4861 720.383 64.9507C720.383 88.1782 712.924 109.664 700.272 127.143Z" fill="#FFB900"/>
<path fill-rule="evenodd" clip-rule="evenodd" d="M742.653 127.143C728.75 109.189 720.476 86.6568 720.476 62.1922C720.476 38.9647 727.935 17.4792 740.587 0C754.489 17.9539 762.764 40.486 762.764 64.9507C762.764 88.1782 755.305 109.664 742.653 127.143Z" fill="white"/>
</g>
<g clip-path="url(#clip9_250_7036)">
<rect width="127.143" height="127.143" transform="translate(508.571 508.571)" fill="#003C96"/>
<path fill-rule="evenodd" clip-rule="evenodd" d="M531.452 635.714C517.55 617.76 509.276 595.228 509.276 570.763C509.276 547.536 516.734 526.051 529.387 508.571C543.289 526.525 551.563 549.057 551.563 573.522C551.563 596.749 544.105 618.235 531.452 635.714Z" fill="#001E64"/>
<path fill-rule="evenodd" clip-rule="evenodd" d="M573.129 635.714C559.226 617.76 550.952 595.228 550.952 570.763C550.952 547.536 558.411 526.051 571.063 508.571C584.966 526.525 593.24 549.057 593.24 573.522C593.24 596.749 585.781 618.235 573.129 635.714Z" fill="#FF7500"/>
<path fill-rule="evenodd" clip-rule="evenodd" d="M615.51 635.714C601.607 617.76 593.333 595.228 593.333 570.763C593.333 547.536 600.792 526.051 613.444 508.571C627.347 526.525 635.621 549.057 635.621 573.522C635.621 596.749 628.162 618.235 615.51 635.714Z" fill="#001E64"/>
</g>
<g clip-path="url(#clip10_250_7036)">
<rect width="127.143" height="127.143" transform="translate(762.857 127.143)" fill="#003C96"/>
<path fill-rule="evenodd" clip-rule="evenodd" d="M794.643 190.714C812.197 190.714 826.429 176.486 826.429 158.928C826.429 141.377 812.197 127.143 794.643 127.143C777.085 127.143 762.857 141.377 762.857 158.928C762.857 176.486 777.085 190.714 794.643 190.714ZM794.643 174.824C803.418 174.824 810.534 167.708 810.534 158.929C810.534 150.15 803.418 143.038 794.643 143.038C785.864 143.038 778.748 150.15 778.748 158.929C778.748 167.708 785.864 174.824 794.643 174.824Z" fill="#001E64"/>
<path fill-rule="evenodd" clip-rule="evenodd" d="M794.643 254.286C812.197 254.286 826.429 240.058 826.429 222.5C826.429 204.949 812.197 190.714 794.643 190.714C777.085 190.714 762.857 204.949 762.857 222.5C762.857 240.058 777.085 254.286 794.643 254.286ZM794.643 238.395C803.418 238.395 810.534 231.279 810.534 222.5C810.534 213.722 803.418 206.609 794.643 206.609C785.864 206.609 778.748 213.722 778.748 222.5C778.748 231.279 785.864 238.395 794.643 238.395Z" fill="#FF7500"/>
<path fill-rule="evenodd" clip-rule="evenodd" d="M858.214 254.286C875.769 254.286 890 240.058 890 222.5C890 204.949 875.769 190.714 858.214 190.714C840.657 190.714 826.428 204.949 826.428 222.5C826.428 240.058 840.657 254.286 858.214 254.286ZM858.214 238.395C866.99 238.395 874.105 231.279 874.105 222.5C874.105 213.722 866.99 206.609 858.214 206.609C849.435 206.609 842.32 213.722 842.32 222.5C842.32 231.279 849.435 238.395 858.214 238.395Z" fill="#001E64"/>
<path fill-rule="evenodd" clip-rule="evenodd" d="M858.214 190.714C875.769 190.714 890 176.486 890 158.928C890 141.377 875.769 127.143 858.214 127.143C840.657 127.143 826.428 141.377 826.428 158.928C826.428 176.486 840.657 190.714 858.214 190.714ZM858.214 174.824C866.99 174.824 874.105 167.708 874.105 158.929C874.105 150.15 866.99 143.038 858.214 143.038C849.435 143.038 842.32 150.15 842.32 158.929C842.32 167.708 849.435 174.824 858.214 174.824Z" fill="#FFB900"/>
</g>
<g clip-path="url(#clip11_250_7036)">
<rect width="127.143" height="127.143" transform="translate(254.286 508.571)" fill="#003C96"/>
<path fill-rule="evenodd" clip-rule="evenodd" d="M286.071 572.143C303.626 572.143 317.857 557.915 317.857 540.357C317.857 522.806 303.626 508.571 286.071 508.571C268.514 508.571 254.286 522.806 254.286 540.357C254.286 557.915 268.514 572.143 286.071 572.143ZM286.071 556.252C294.847 556.252 301.963 549.136 301.963 540.358C301.963 531.579 294.847 524.466 286.071 524.466C277.292 524.466 270.177 531.579 270.177 540.358C270.177 549.136 277.292 556.252 286.071 556.252Z" fill="#00BE64"/>
<path fill-rule="evenodd" clip-rule="evenodd" d="M286.072 635.714C303.626 635.714 317.857 621.486 317.857 603.928C317.857 586.377 303.626 572.143 286.072 572.143C268.514 572.143 254.286 586.377 254.286 603.928C254.286 621.486 268.514 635.714 286.072 635.714ZM286.072 619.824C294.847 619.824 301.963 612.708 301.963 603.929C301.963 595.15 294.847 588.038 286.072 588.038C277.292 588.038 270.177 595.15 270.177 603.929C270.177 612.708 277.292 619.824 286.072 619.824Z" fill="white"/>
<path fill-rule="evenodd" clip-rule="evenodd" d="M349.643 635.714C367.197 635.714 381.429 621.486 381.429 603.928C381.429 586.377 367.197 572.143 349.643 572.143C332.085 572.143 317.857 586.377 317.857 603.928C317.857 621.486 332.085 635.714 349.643 635.714ZM349.643 619.824C358.419 619.824 365.534 612.708 365.534 603.929C365.534 595.15 358.419 588.038 349.643 588.038C340.864 588.038 333.748 595.15 333.748 603.929C333.748 612.708 340.864 619.824 349.643 619.824Z" fill="#001E64"/>
<path fill-rule="evenodd" clip-rule="evenodd" d="M349.643 572.143C367.197 572.143 381.429 557.915 381.429 540.357C381.429 522.806 367.197 508.571 349.643 508.571C332.085 508.571 317.857 522.806 317.857 540.357C317.857 557.915 332.085 572.143 349.643 572.143ZM349.643 556.252C358.419 556.252 365.534 549.136 365.534 540.358C365.534 531.579 358.419 524.466 349.643 524.466C340.864 524.466 333.748 531.579 333.748 540.358C333.748 549.136 340.864 556.252 349.643 556.252Z" fill="white"/>
</g>
<rect width="127.143" height="127.143" transform="translate(762.857)" fill="#001E64"/>
<path fill-rule="evenodd" clip-rule="evenodd" d="M826.905 32.598C829.275 32.598 831.196 30.6768 831.196 28.3069C831.196 25.937 829.275 24.0159 826.905 24.0159C824.535 24.0159 822.614 25.937 822.614 28.3069C822.614 30.6768 824.535 32.598 826.905 32.598ZM805.45 38.7973C805.45 41.1672 803.529 43.0884 801.159 43.0884C798.789 43.0884 796.868 41.1672 796.868 38.7973C796.868 36.4274 798.789 34.5063 801.159 34.5063C803.529 34.5063 805.45 36.4274 805.45 38.7973ZM826.429 85.0455C839.068 85.0455 849.314 74.7993 849.314 62.1598C849.314 49.5204 839.068 39.2741 826.429 39.2741C813.789 39.2741 803.543 49.5204 803.543 62.1598C803.543 74.7993 813.789 85.0455 826.429 85.0455ZM792.577 67.8796C794.947 67.8796 796.868 65.9584 796.868 63.5885C796.868 61.2186 794.947 59.2975 792.577 59.2975C790.207 59.2975 788.286 61.2186 788.286 63.5885C788.286 65.9584 790.207 67.8796 792.577 67.8796ZM855.989 38.7973C855.989 41.1672 854.068 43.0884 851.698 43.0884C849.328 43.0884 847.407 41.1672 847.407 38.7973C847.407 36.4274 849.328 34.5063 851.698 34.5063C854.068 34.5063 855.989 36.4274 855.989 38.7973ZM860.28 67.8796C862.65 67.8796 864.571 65.9584 864.571 63.5885C864.571 61.2186 862.65 59.2975 860.28 59.2975C857.91 59.2975 855.989 61.2186 855.989 63.5885C855.989 65.9584 857.91 67.8796 860.28 67.8796Z" fill="white"/>
<path d="M816.893 91.9109C816.893 97.1773 821.162 101.447 826.429 101.447C831.695 101.447 835.964 97.1773 835.964 91.9109H816.893ZM835.964 91.9109V83.138H816.893V91.9109H835.964Z" fill="#00BE64"/>
<rect width="127.143" height="127.143" transform="translate(762.857 635.714)" fill="#003C96"/>
<circle cx="784.754" cy="657.611" r="19.0714" fill="#FFB900"/>
<circle cx="784.754" cy="740.96" r="19.0714" fill="white"/>
<circle cx="868.103" cy="657.611" r="19.0714" fill="#FF7500"/>
<circle cx="868.103" cy="740.96" r="19.0714" fill="#FFB900"/>
<circle cx="827.135" cy="698.579" r="19.0714" fill="#FF7500"/>
<g clip-path="url(#clip12_250_7036)">
<rect width="127.143" height="127.143" transform="translate(0 635.714)" fill="#001E64"/>
<path fill-rule="evenodd" clip-rule="evenodd" d="M0.000167847 826.429C35.1088 826.429 63.5714 797.973 63.5714 762.857C63.5714 727.755 35.1088 699.286 0.000167847 699.286C-35.1153 699.286 -63.5714 727.755 -63.5714 762.857C-63.5714 797.973 -35.1153 826.429 0.000167847 826.429ZM0.000167847 794.647C17.5512 794.647 31.7822 780.416 31.7822 762.858C31.7822 745.301 17.5512 731.076 0.000167847 731.076C-17.5581 731.076 -31.7892 745.301 -31.7892 762.858C-31.7892 780.416 -17.5581 794.647 0.000167847 794.647Z" fill="white"/>
<path fill-rule="evenodd" clip-rule="evenodd" d="M0.000167847 699.286C35.1088 699.286 63.5714 670.83 63.5714 635.714C63.5714 600.612 35.1088 572.143 0.000167847 572.143C-35.1153 572.143 -63.5714 600.612 -63.5714 635.714C-63.5714 670.83 -35.1153 699.286 0.000167847 699.286ZM0.000167847 667.505C17.5512 667.505 31.7822 653.273 31.7822 635.715C31.7822 618.158 17.5512 603.933 0.000167847 603.933C-17.5581 603.933 -31.7892 618.158 -31.7892 635.715C-31.7892 653.273 -17.5581 667.505 0.000167847 667.505Z" fill="#FFB900"/>
<path fill-rule="evenodd" clip-rule="evenodd" d="M127.143 699.286C162.252 699.286 190.714 670.83 190.714 635.714C190.714 600.612 162.252 572.143 127.143 572.143C92.0275 572.143 63.5714 600.612 63.5714 635.714C63.5714 670.83 92.0275 699.286 127.143 699.286ZM127.143 667.505C144.694 667.505 158.925 653.273 158.925 635.715C158.925 618.158 144.694 603.933 127.143 603.933C109.585 603.933 95.3537 618.158 95.3537 635.715C95.3537 653.273 109.585 667.505 127.143 667.505Z" fill="#003C96"/>
<path fill-rule="evenodd" clip-rule="evenodd" d="M127.143 826.429C162.252 826.429 190.714 797.973 190.714 762.857C190.714 727.755 162.252 699.286 127.143 699.286C92.0275 699.286 63.5714 727.755 63.5714 762.857C63.5714 797.973 92.0275 826.429 127.143 826.429ZM127.143 794.647C144.694 794.647 158.925 780.416 158.925 762.858C158.925 745.301 144.694 731.076 127.143 731.076C109.585 731.076 95.3537 745.301 95.3537 762.858C95.3537 780.416 109.585 794.647 127.143 794.647Z" fill="#003C96"/>
</g>
<g clip-path="url(#clip13_250_7036)">
<rect width="127.143" height="127.143" transform="translate(254.286 635.714)" fill="#003C96"/>
<path fill-rule="evenodd" clip-rule="evenodd" d="M254.286 826.429C289.395 826.429 317.857 797.973 317.857 762.857C317.857 727.755 289.395 699.286 254.286 699.286C219.17 699.286 190.714 727.755 190.714 762.857C190.714 797.973 219.17 826.429 254.286 826.429ZM254.286 794.647C271.837 794.647 286.068 780.416 286.068 762.858C286.068 745.301 271.837 731.076 254.286 731.076C236.728 731.076 222.497 745.301 222.497 762.858C222.497 780.416 236.728 794.647 254.286 794.647Z" fill="#001E64"/>
<path fill-rule="evenodd" clip-rule="evenodd" d="M254.286 699.286C289.395 699.286 317.857 670.83 317.857 635.714C317.857 600.612 289.395 572.143 254.286 572.143C219.17 572.143 190.714 600.612 190.714 635.714C190.714 670.83 219.17 699.286 254.286 699.286ZM254.286 667.505C271.837 667.505 286.068 653.273 286.068 635.715C286.068 618.158 271.837 603.933 254.286 603.933C236.728 603.933 222.497 618.158 222.497 635.715C222.497 653.273 236.728 667.505 254.286 667.505Z" fill="#FF7500"/>
<path fill-rule="evenodd" clip-rule="evenodd" d="M381.429 699.286C416.537 699.286 445 670.83 445 635.714C445 600.612 416.537 572.143 381.429 572.143C346.313 572.143 317.857 600.612 317.857 635.714C317.857 670.83 346.313 699.286 381.429 699.286ZM381.429 667.505C398.98 667.505 413.211 653.273 413.211 635.715C413.211 618.158 398.98 603.933 381.429 603.933C363.871 603.933 349.639 618.158 349.639 635.715C349.639 653.273 363.871 667.505 381.429 667.505Z" fill="#001E64"/>
<path fill-rule="evenodd" clip-rule="evenodd" d="M381.429 826.429C416.537 826.429 445 797.973 445 762.857C445 727.755 416.537 699.286 381.429 699.286C346.313 699.286 317.857 727.755 317.857 762.857C317.857 797.973 346.313 826.429 381.429 826.429ZM381.429 794.647C398.98 794.647 413.211 780.416 413.211 762.858C413.211 745.301 398.98 731.076 381.429 731.076C363.871 731.076 349.639 745.301 349.639 762.858C349.639 780.416 363.871 794.647 381.429 794.647Z" fill="white"/>
</g>
<g clip-path="url(#clip14_250_7036)">
<rect width="127.143" height="127.143" transform="translate(0 508.571)" fill="#003C96"/>
<circle cx="127.143" cy="508.571" r="63.5714" fill="#FFB900"/>
</g>
<g clip-path="url(#clip15_250_7036)">
<rect width="127.143" height="127.143" transform="translate(127.143 508.571)" fill="#003C96"/>
<circle cx="127.143" cy="508.571" r="63.5714" fill="#FFB900"/>
</g>
<rect width="254.286" height="254.286" transform="translate(381.429 635.714)" fill="#003C96"/>
<path d="M507.188 708.943C508.881 703.216 514.14 699.286 520.112 699.286C528.853 699.286 535.281 707.478 533.201 715.968L529.758 730.025H500.96L507.188 708.943Z" fill="white"/>
<path d="M456.782 737.358C457.713 733.077 461.502 730.025 465.883 730.025H500.96L500.96 808.269H452.906C446.963 808.269 442.54 802.779 443.804 796.973L456.782 737.358Z" fill="#FFB900"/>
<path d="M557.418 801.457C556.295 805.484 552.626 808.269 548.446 808.269H500.96L500.96 730.025L565.073 730.025C571.237 730.025 575.701 735.904 574.045 741.842L557.418 801.457Z" fill="white"/>
<rect width="127.143" height="127.143" transform="translate(381.429 127.143)" fill="#001E64"/>
<path d="M470.429 168.817C470.429 182.471 459.36 193.54 445.706 193.54C432.053 193.54 420.984 182.471 420.984 168.817C420.984 155.164 432.053 144.095 445.706 144.095C459.36 144.095 470.429 155.164 470.429 168.817Z" fill="white"/>
<path d="M445.706 237.61L426.158 184.403L465.255 184.403L445.706 237.61Z" fill="#FFB900"/>
<g clip-path="url(#clip16_250_7036)">
<rect width="127.143" height="127.143" transform="translate(127.143 254.286)" fill="#003C96"/>
<path fill-rule="evenodd" clip-rule="evenodd" d="M254.286 254.286L254.24 254.286C237.397 254.298 221.245 260.994 209.334 272.906C197.412 284.827 190.714 300.997 190.714 317.857C207.575 317.857 223.744 311.16 235.666 299.238C247.588 287.316 254.286 271.146 254.286 254.286Z" fill="#001E64"/>
<path fill-rule="evenodd" clip-rule="evenodd" d="M172.095 362.809C160.173 374.731 144.003 381.429 127.143 381.429L127.143 381.371C127.158 364.532 133.854 348.385 145.763 336.477C157.684 324.555 173.854 317.857 190.714 317.857C190.714 334.717 184.017 350.887 172.095 362.809Z" fill="#FFB900"/>
<path fill-rule="evenodd" clip-rule="evenodd" d="M127.143 254.286L127.143 254.387C127.17 271.211 133.864 287.34 145.762 299.238C157.684 311.16 173.854 317.857 190.714 317.857C190.714 317.857 190.714 317.857 190.714 317.857C190.714 317.857 190.714 317.857 190.714 317.857C190.714 300.997 184.017 284.827 172.095 272.905C160.193 261.004 144.057 254.308 127.228 254.286L127.143 254.286Z" fill="#FF7500"/>
<path fill-rule="evenodd" clip-rule="evenodd" d="M254.286 381.429C254.286 364.569 247.588 348.399 235.666 336.477C223.744 324.555 207.575 317.857 190.714 317.857C190.714 334.717 197.412 350.887 209.334 362.809C221.256 374.731 237.426 381.429 254.286 381.429Z" fill="#FFB900"/>
</g>
<g clip-path="url(#clip17_250_7036)">
<rect width="127.143" height="127.143" transform="translate(381.429 254.286)" fill="#003C96"/>
<path fill-rule="evenodd" clip-rule="evenodd" d="M508.572 254.286L508.526 254.286C491.682 254.298 475.531 260.994 463.62 272.906C451.698 284.827 445 300.997 445 317.857C461.86 317.857 478.03 311.16 489.952 299.238C501.874 287.316 508.572 271.146 508.572 254.286Z" fill="#001E64"/>
<path fill-rule="evenodd" clip-rule="evenodd" d="M426.38 362.809C414.458 374.731 398.289 381.429 381.429 381.429L381.429 381.319C381.458 364.498 388.152 348.373 400.048 336.477C411.97 324.555 428.14 317.857 445 317.857C445 317.857 445 317.857 445 317.857C445 334.717 438.302 350.887 426.38 362.809Z" fill="#001E64"/>
<path fill-rule="evenodd" clip-rule="evenodd" d="M381.429 254.324C381.429 254.311 381.429 254.299 381.429 254.286L381.514 254.286C398.343 254.308 414.479 261.004 426.38 272.905C438.302 284.827 445 300.997 445 317.857C445 317.857 445 317.857 445 317.857C428.14 317.857 411.97 311.16 400.048 299.238C388.135 287.325 381.439 271.17 381.429 254.324Z" fill="white"/>
<path fill-rule="evenodd" clip-rule="evenodd" d="M508.572 381.429C508.572 364.569 501.874 348.399 489.952 336.477C478.03 324.555 461.86 317.857 445 317.857L445 317.978C445.032 334.795 451.726 350.916 463.62 362.809C475.542 374.731 491.711 381.429 508.571 381.429C508.571 381.429 508.571 381.429 508.572 381.429Z" fill="#FFB900"/>
</g>
<g clip-path="url(#clip18_250_7036)">
<rect width="127.143" height="127.143" transform="translate(381.429 508.571)" fill="#003C96"/>
<path fill-rule="evenodd" clip-rule="evenodd" d="M508.572 508.571L508.526 508.571C491.682 508.583 475.531 515.28 463.62 527.191C451.698 539.113 445 555.283 445 572.143C461.86 572.143 478.03 565.445 489.952 553.523C501.874 541.601 508.572 525.431 508.572 508.571Z" fill="#00BE64"/>
<path fill-rule="evenodd" clip-rule="evenodd" d="M381.429 635.714H381.508C398.34 635.693 414.477 628.998 426.38 617.095C438.302 605.173 445 589.003 445 572.143C445 572.143 445 572.143 445 572.143C445 572.143 445 572.143 445 572.143C428.14 572.143 411.97 578.84 400.048 590.762C388.152 602.658 381.458 618.784 381.429 635.604L381.429 635.714Z" fill="#FF7500"/>
<path fill-rule="evenodd" clip-rule="evenodd" d="M400.048 553.523C388.135 541.61 381.439 525.456 381.429 508.609L381.429 508.571C398.289 508.571 414.459 515.269 426.38 527.191C438.302 539.113 445 555.282 445 572.143C428.14 572.143 411.97 565.445 400.048 553.523Z" fill="#FFB900"/>
<path fill-rule="evenodd" clip-rule="evenodd" d="M445 572.143L445 572.263C445.032 589.08 451.726 605.201 463.62 617.095C475.542 629.016 491.711 635.714 508.571 635.714C508.571 635.714 508.571 635.714 508.572 635.714C508.572 618.854 501.874 602.684 489.952 590.762C478.042 578.853 461.894 572.157 445.053 572.143C445.036 572.143 445.018 572.143 445 572.143Z" fill="#FFB900"/>
</g>
<rect width="127.143" height="127.143" transform="translate(254.286 381.429)" fill="#001E64"/>
<path fill-rule="evenodd" clip-rule="evenodd" d="M290.335 433.032C293.527 436.224 295.32 440.552 295.32 445.066C290.806 445.066 286.478 443.273 283.286 440.081C280.099 436.894 278.307 432.574 278.302 428.067L278.302 428.048C282.815 428.048 287.144 429.841 290.335 433.032ZM295.32 445.066L295.32 445.066C295.32 449.579 293.527 453.908 290.335 457.099C287.158 460.276 282.854 462.068 278.363 462.084H278.302L278.302 462.036C278.314 457.54 280.106 453.23 283.286 450.05C286.477 446.859 290.806 445.066 295.32 445.066H295.32Z" fill="#FF7500"/>
<path fill-rule="evenodd" clip-rule="evenodd" d="M327.558 432.199C315.259 432.199 303.931 437.126 294.905 445.404C303.692 452.938 314.494 457.379 326.172 457.379C338.471 457.379 349.799 452.452 358.825 444.174C350.038 436.64 339.236 432.199 327.558 432.199ZM341.808 444.651C342.954 444.651 343.883 443.722 343.883 442.576C343.883 441.429 342.954 440.5 341.808 440.5C340.662 440.5 339.732 441.429 339.732 442.576C339.732 443.722 340.662 444.651 341.808 444.651Z" fill="white"/>
<g clip-path="url(#clip19_250_7036)">
<rect width="127.143" height="127.143" transform="translate(254.286 762.857)" fill="#003C96"/>
<path fill-rule="evenodd" clip-rule="evenodd" d="M381.383 762.857C381.398 762.857 381.414 762.857 381.429 762.857C381.429 779.717 374.731 795.887 362.809 807.809C350.887 819.731 334.717 826.429 317.857 826.429C317.857 809.568 324.555 793.399 336.477 781.477C348.388 769.566 364.539 762.869 381.383 762.857Z" fill="#001E64"/>
<path fill-rule="evenodd" clip-rule="evenodd" d="M254.286 890H254.408C271.224 889.968 287.345 883.274 299.238 871.38C311.16 859.459 317.857 843.289 317.857 826.429C317.857 826.429 317.857 826.429 317.857 826.429C317.857 826.429 317.857 826.429 317.857 826.429C300.997 826.429 284.827 833.126 272.905 845.048C261.004 856.949 254.309 873.084 254.286 889.912L254.286 890Z" fill="#00BE64"/>
<path fill-rule="evenodd" clip-rule="evenodd" d="M317.857 826.429C317.857 809.568 311.16 793.399 299.238 781.477C287.316 769.555 271.146 762.857 254.286 762.857L254.286 762.933C254.306 779.766 261.001 795.905 272.905 807.809C284.827 819.731 300.997 826.429 317.857 826.429C317.857 826.429 317.857 826.429 317.857 826.429Z" fill="#001E64"/>
<path fill-rule="evenodd" clip-rule="evenodd" d="M336.477 871.38C324.555 859.458 317.857 843.289 317.857 826.429L317.965 826.429C334.786 826.457 350.912 833.152 362.809 845.048C374.731 856.97 381.429 873.14 381.429 890C381.429 890 381.429 890 381.429 890C364.568 890 348.399 883.302 336.477 871.38Z" fill="#FFB900"/>
</g>
<g clip-path="url(#clip20_250_7036)">
<rect width="127.143" height="127.143" transform="translate(762.857 381.429)" fill="#003C96"/>
<path fill-rule="evenodd" clip-rule="evenodd" d="M890 381.429L889.949 381.429C873.107 381.442 856.958 388.138 845.048 400.048C833.126 411.97 826.428 428.14 826.428 445C843.289 445 859.458 438.302 871.38 426.381C883.302 414.459 890 398.289 890 381.429Z" fill="#001E64"/>
<path fill-rule="evenodd" clip-rule="evenodd" d="M807.809 489.952C795.896 501.865 779.742 508.561 762.895 508.572H762.857C762.857 491.711 769.555 475.542 781.477 463.62C793.399 451.698 809.568 445 826.428 445C826.428 461.86 819.731 478.03 807.809 489.952Z" fill="#FFB900"/>
<path fill-rule="evenodd" clip-rule="evenodd" d="M781.477 426.38C769.555 414.459 762.857 398.289 762.857 381.429L762.965 381.429C779.786 381.457 795.912 388.152 807.809 400.048C819.731 411.97 826.428 428.14 826.428 445C826.428 445 826.428 445 826.428 445C809.568 445 793.399 438.302 781.477 426.38Z" fill="#00BE64"/>
<path fill-rule="evenodd" clip-rule="evenodd" d="M826.429 445.038C826.429 445.026 826.429 445.013 826.429 445C843.289 445 859.458 451.698 871.38 463.62C883.302 475.542 890 491.711 890 508.572C873.14 508.572 856.97 501.874 845.048 489.952C833.135 478.039 826.439 461.885 826.429 445.038Z" fill="#001E64"/>
</g>
<g clip-path="url(#clip21_250_7036)">
<rect width="127.143" height="127.143" transform="translate(635.714 127.143)" fill="#003C96"/>
<path fill-rule="evenodd" clip-rule="evenodd" d="M762.807 127.143C762.823 127.143 762.84 127.143 762.857 127.143C762.857 144.003 756.159 160.173 744.237 172.095C732.315 184.017 716.146 190.714 699.286 190.714C699.286 173.854 705.983 157.684 717.905 145.762C729.815 133.852 745.965 127.156 762.807 127.143Z" fill="#FFB900"/>
<path fill-rule="evenodd" clip-rule="evenodd" d="M699.286 190.714C682.425 190.714 666.256 197.412 654.334 209.334C642.412 221.256 635.714 237.425 635.714 254.286C652.574 254.286 668.744 247.588 680.666 235.666C692.588 223.744 699.286 207.574 699.286 190.714Z" fill="#001E64"/>
<path fill-rule="evenodd" clip-rule="evenodd" d="M654.334 172.095C642.412 160.173 635.714 144.003 635.714 127.143L635.768 127.143C652.609 127.157 668.757 133.853 680.666 145.762C692.588 157.684 699.286 173.854 699.286 190.714C682.425 190.714 666.256 184.017 654.334 172.095Z" fill="white"/>
<path fill-rule="evenodd" clip-rule="evenodd" d="M762.857 254.286C762.857 237.425 756.159 221.256 744.237 209.334C732.315 197.412 716.146 190.714 699.286 190.714L699.286 190.79C699.306 207.623 706.001 223.762 717.905 235.666C729.827 247.588 745.997 254.286 762.857 254.286C762.857 254.286 762.857 254.286 762.857 254.286Z" fill="white"/>
</g>
<rect width="127.143" height="127.143" transform="translate(635.714 381.429)" fill="#003C96"/>
<path d="M691.78 425.28C695.435 418.727 697.261 415.451 699.992 415.451C702.723 415.451 704.549 418.727 708.203 425.28L709.149 426.976C710.188 428.839 710.707 429.771 711.515 430.385C712.322 431 713.332 431.227 715.351 431.683L717.185 432.099C724.28 433.705 727.825 434.507 728.67 437.221C729.512 439.932 727.095 442.762 722.258 448.418L721.007 449.88C719.634 451.486 718.944 452.291 718.636 453.283C718.327 454.278 718.431 455.351 718.639 457.494L718.829 459.447C719.559 466.995 719.925 470.768 717.716 472.444C715.506 474.122 712.184 472.591 705.544 469.533L703.822 468.743C701.936 467.872 700.993 467.439 699.992 467.439C698.991 467.439 698.048 467.872 696.159 468.743L694.443 469.533C687.8 472.591 684.478 474.119 682.271 472.446C680.059 470.768 680.425 466.995 681.155 459.447L681.345 457.497C681.553 455.351 681.657 454.278 681.345 453.286C681.039 452.291 680.35 451.486 678.977 449.883L677.725 448.418C672.889 442.764 670.472 439.935 671.314 437.221C672.159 434.507 675.707 433.702 682.802 432.099L684.636 431.683C686.652 431.227 687.659 431 688.469 430.385C689.277 429.771 689.796 428.839 690.834 426.976L691.78 425.28Z" fill="#FFB900"/>
<rect width="127.143" height="127.143" transform="translate(762.857 254.286)" fill="#001E64"/>
<path d="M809.476 295.448H847.519L838.705 357.616H818.755L809.476 295.448Z" fill="#00BE64"/>
<path fill-rule="evenodd" clip-rule="evenodd" d="M858.921 276.889L837.447 276.889C835.956 276.889 834.739 278.062 834.667 279.535L833.601 296.198L839.157 296.553L840.059 282.457L858.921 282.457V276.889Z" fill="white"/>
<rect width="127.143" height="127.143" transform="translate(762.857 762.857)" fill="#001E64"/>
<path fill-rule="evenodd" clip-rule="evenodd" d="M796.762 808.77H796.762V813.714C796.762 819.176 801.189 823.603 806.651 823.603H805.662V865.136C805.662 867.867 807.876 870.081 810.606 870.081C813.337 870.081 815.551 867.867 815.551 865.136V823.603H814.562C820.023 823.603 824.451 819.176 824.451 813.714V808.77H824.451L824.451 787.014C824.451 785.376 823.123 784.048 821.484 784.048C819.846 784.048 818.518 785.376 818.518 787.014L818.518 808.77H813.573L813.573 787.014C813.573 785.376 812.245 784.048 810.606 784.048C808.968 784.048 807.64 785.376 807.64 787.014L807.64 808.77H802.695L802.695 787.014C802.695 785.376 801.367 784.048 799.729 784.048C798.09 784.048 796.762 785.376 796.762 787.014L796.762 808.77Z" fill="white"/>
<path fill-rule="evenodd" clip-rule="evenodd" d="M837.306 829.456L837.306 788.992C837.306 786.261 839.52 784.048 842.251 784.048C844.981 784.048 847.195 786.261 847.195 788.992L847.195 829.456C852.399 831.447 856.095 836.488 856.095 842.392V856.236C856.095 863.882 849.897 870.081 842.251 870.081C834.604 870.081 828.406 863.882 828.406 856.236V842.392C828.406 836.488 832.102 831.447 837.306 829.456Z" fill="#FF7500"/>
<g clip-path="url(#clip22_250_7036)">
<rect width="127.143" height="127.143" fill="#003C96"/>
<path d="M-2.08164e-05 -1.1773e-05C-1.93424e-05 16.8602 6.69767 33.0298 18.6196 44.9518C30.5416 56.8737 46.7112 63.5714 63.5714 63.5714C80.4316 63.5714 96.6012 56.8737 108.523 44.9518C120.445 33.0298 127.143 16.8602 127.143 -1.14441e-05L-2.08164e-05 -1.1773e-05Z" fill="#001E64"/>
<path d="M127.143 127.143C127.143 110.283 120.445 94.113 108.523 82.1911C96.6013 70.2691 80.4316 63.5714 63.5714 63.5714C46.7112 63.5714 30.5416 70.2691 18.6196 82.1911C6.69768 94.113 -5.62143e-06 110.283 -1.11152e-05 127.143L127.143 127.143Z" fill="#FFB900"/>
</g>
<g clip-path="url(#clip23_250_7036)">
<rect width="127.143" height="127.143" transform="translate(254.286 127.143)" fill="#003C96"/>
<path d="M254.286 127.143C254.286 144.003 260.983 160.173 272.905 172.095C284.827 184.017 300.997 190.714 317.857 190.714C334.717 190.714 350.887 184.017 362.809 172.095C374.731 160.173 381.429 144.003 381.429 127.143L254.286 127.143Z" fill="white"/>
<path d="M381.429 254.286C381.429 237.425 374.731 221.256 362.809 209.334C350.887 197.412 334.717 190.714 317.857 190.714C300.997 190.714 284.827 197.412 272.905 209.334C260.983 221.256 254.286 237.425 254.286 254.286L381.429 254.286Z" fill="#00BE64"/>
</g>
<g clip-path="url(#clip24_250_7036)">
<rect width="127.143" height="127.143" transform="translate(762.857 508.571) rotate(90)" fill="#003C96"/>
<path d="M762.857 508.571C745.997 508.571 729.827 515.269 717.905 527.191C705.983 539.113 699.286 555.282 699.286 572.143C699.286 589.003 705.983 605.173 717.905 617.094C729.827 629.016 745.997 635.714 762.857 635.714L762.857 508.571Z" fill="white"/>
<path d="M635.714 635.714C652.574 635.714 668.744 629.016 680.666 617.095C692.588 605.173 699.286 589.003 699.286 572.143C699.286 555.283 692.588 539.113 680.666 527.191C668.744 515.269 652.574 508.571 635.714 508.571L635.714 635.714Z" fill="#00BE64"/>
</g>
<rect width="127.143" height="127.143" transform="translate(127.143)" fill="#003C96"/>
<path d="M159.635 78.3882C165.434 91.9957 178.931 101.541 194.661 101.541C188.863 87.9279 175.365 78.3882 159.635 78.3882Z" fill="#00BE64"/>
<path d="M194.665 101.537C206.22 101.537 216.17 94.6698 220.659 84.7977C209.106 84.7977 199.157 91.6653 194.665 101.537Z" fill="#00BE64"/>
<path fill-rule="evenodd" clip-rule="evenodd" d="M194.664 82.5126C210.427 82.5126 223.206 69.7366 223.206 53.9705C223.206 38.2105 210.427 25.4286 194.664 25.4286C178.899 25.4286 166.122 38.2105 166.122 53.9705C166.122 69.7366 178.899 82.5126 194.664 82.5126ZM194.664 68.2436C202.544 68.2436 208.934 61.8539 208.934 53.971C208.934 46.0881 202.544 39.7014 194.664 39.7014C186.781 39.7014 180.392 46.0881 180.392 53.971C180.392 61.8539 186.781 68.2436 194.664 68.2436Z" fill="#FFB900"/>
<rect width="127.143" height="127.143" transform="translate(508.571 127.143)" fill="#003C96"/>
<path d="M541.063 205.531C546.862 219.139 560.36 228.684 576.09 228.684C570.291 215.071 556.794 205.531 541.063 205.531Z" fill="#00BE64"/>
<path d="M576.093 228.68C587.649 228.68 597.598 221.813 602.088 211.941C590.535 211.941 580.585 218.808 576.093 228.68Z" fill="#00BE64"/>
<path fill-rule="evenodd" clip-rule="evenodd" d="M576.093 209.655C591.856 209.655 604.635 196.879 604.635 181.113C604.635 165.353 591.856 152.571 576.093 152.571C560.327 152.571 547.551 165.353 547.551 181.113C547.551 196.879 560.327 209.655 576.093 209.655ZM576.093 195.386C583.973 195.386 590.362 188.997 590.362 181.114C590.362 173.231 583.973 166.844 576.093 166.844C568.21 166.844 561.82 173.231 561.82 181.114C561.82 188.997 568.21 195.386 576.093 195.386Z" fill="#FFB900"/>
<rect width="127.143" height="127.143" transform="translate(0 762.857)" fill="#003C96"/>
<path d="M32.4921 841.245C38.2907 854.853 51.7883 864.399 67.5186 864.399C61.7199 850.785 48.2224 841.245 32.4921 841.245Z" fill="#00BE64"/>
<path d="M67.5219 864.395C79.0774 864.395 89.0271 857.527 93.5164 847.655C81.9636 847.655 72.0141 854.522 67.5219 864.395Z" fill="#00BE64"/>
<path fill-rule="evenodd" clip-rule="evenodd" d="M67.5216 845.37C83.2845 845.37 96.0635 832.594 96.0635 816.828C96.0635 801.068 83.2845 788.286 67.5216 788.286C51.7556 788.286 38.9796 801.068 38.9796 816.828C38.9796 832.594 51.7556 845.37 67.5216 845.37ZM67.5216 831.101C75.4016 831.101 81.7909 824.711 81.7909 816.828C81.7909 808.945 75.4016 802.559 67.5216 802.559C59.6384 802.559 53.249 808.945 53.249 816.828C53.249 824.711 59.6384 831.101 67.5216 831.101Z" fill="#FFB900"/>
<rect width="127.143" height="127.143" transform="translate(762.857 508.571)" fill="#003C96"/>
<path d="M795.349 586.959C801.148 600.567 814.645 610.113 830.376 610.113C824.577 596.499 811.079 586.959 795.349 586.959Z" fill="#00BE64"/>
<path d="M830.379 610.109C841.934 610.109 851.884 603.241 856.373 593.369C844.821 593.369 834.871 600.237 830.379 610.109Z" fill="#00BE64"/>
<path fill-rule="evenodd" clip-rule="evenodd" d="M830.379 591.084C846.142 591.084 858.921 578.308 858.921 562.542C858.921 546.782 846.142 534 830.379 534C814.613 534 801.837 546.782 801.837 562.542C801.837 578.308 814.613 591.084 830.379 591.084ZM830.379 576.815C838.259 576.815 844.648 570.425 844.648 562.542C844.648 554.659 838.259 548.273 830.379 548.273C822.495 548.273 816.106 554.659 816.106 562.542C816.106 570.425 822.495 576.815 830.379 576.815Z" fill="#FFB900"/>
</g>
<defs>
<clipPath id="clip0_250_7036">
<rect width="890" height="890" rx="40" fill="white"/>
</clipPath>
<clipPath id="clip1_250_7036">
<rect width="127.143" height="127.143" fill="white" transform="translate(381.429) rotate(90)"/>
</clipPath>
<clipPath id="clip2_250_7036">
<rect width="127.143" height="127.143" fill="white" transform="translate(508.571 508.571) rotate(-90)"/>
</clipPath>
<clipPath id="clip3_250_7036">
<rect width="127.143" height="127.143" fill="white" transform="translate(381.429)"/>
</clipPath>
<clipPath id="clip4_250_7036">
<rect width="127.143" height="127.143" fill="white" transform="translate(508.571)"/>
</clipPath>
<clipPath id="clip5_250_7036">
<rect width="127.143" height="127.143" fill="white" transform="translate(0 254.286)"/>
</clipPath>
<clipPath id="clip6_250_7036">
<rect width="127.143" height="127.143" fill="white" transform="translate(127.143 127.143)"/>
</clipPath>
<clipPath id="clip7_250_7036">
<rect width="127.143" height="127.143" fill="white" transform="translate(635.714 635.714)"/>
</clipPath>
<clipPath id="clip8_250_7036">
<rect width="127.143" height="127.143" fill="white" transform="translate(635.714)"/>
</clipPath>
<clipPath id="clip9_250_7036">
<rect width="127.143" height="127.143" fill="white" transform="translate(508.571 508.571)"/>
</clipPath>
<clipPath id="clip10_250_7036">
<rect width="127.143" height="127.143" fill="white" transform="translate(762.857 127.143)"/>
</clipPath>
<clipPath id="clip11_250_7036">
<rect width="127.143" height="127.143" fill="white" transform="translate(254.286 508.571)"/>
</clipPath>
<clipPath id="clip12_250_7036">
<rect width="127.143" height="127.143" fill="white" transform="translate(0 635.714)"/>
</clipPath>
<clipPath id="clip13_250_7036">
<rect width="127.143" height="127.143" fill="white" transform="translate(254.286 635.714)"/>
</clipPath>
<clipPath id="clip14_250_7036">
<rect width="127.143" height="127.143" fill="white" transform="translate(0 508.571)"/>
</clipPath>
<clipPath id="clip15_250_7036">
<rect width="127.143" height="127.143" fill="white" transform="translate(127.143 508.571)"/>
</clipPath>
<clipPath id="clip16_250_7036">
<rect width="127.143" height="127.143" fill="white" transform="translate(127.143 254.286)"/>
</clipPath>
<clipPath id="clip17_250_7036">
<rect width="127.143" height="127.143" fill="white" transform="translate(381.429 254.286)"/>
</clipPath>
<clipPath id="clip18_250_7036">
<rect width="127.143" height="127.143" fill="white" transform="translate(381.429 508.571)"/>
</clipPath>
<clipPath id="clip19_250_7036">
<rect width="127.143" height="127.143" fill="white" transform="translate(254.286 762.857)"/>
</clipPath>
<clipPath id="clip20_250_7036">
<rect width="127.143" height="127.143" fill="white" transform="translate(762.857 381.429)"/>
</clipPath>
<clipPath id="clip21_250_7036">
<rect width="127.143" height="127.143" fill="white" transform="translate(635.714 127.143)"/>
</clipPath>
<clipPath id="clip22_250_7036">
<rect width="127.143" height="127.143" fill="white"/>
</clipPath>
<clipPath id="clip23_250_7036">
<rect width="127.143" height="127.143" fill="white" transform="translate(254.286 127.143)"/>
</clipPath>
<clipPath id="clip24_250_7036">
<rect width="127.143" height="127.143" fill="white" transform="translate(762.857 508.571) rotate(90)"/>
</clipPath>
</defs>
</svg>
