<svg width="24" height="25" viewBox="0 0 24 25" fill="none" xmlns="http://www.w3.org/2000/svg">
<path fill-rule="evenodd" clip-rule="evenodd" d="M6.99987 5.01677C8.47991 4.02784 10.22 3.5 12 3.5C14.387 3.5 16.6761 4.44821 18.364 6.13604C20.0518 7.82387 21 10.1131 21 12.5C21 14.28 20.4722 16.0201 19.4832 17.5001C18.4943 18.9802 17.0887 20.1337 15.4442 20.8149C13.7996 21.4961 11.99 21.6743 10.2442 21.3271C8.49836 20.9798 6.89472 20.1226 5.63604 18.864C4.37737 17.6053 3.5202 16.0016 3.17294 14.2558C2.82567 12.51 3.0039 10.7004 3.68509 9.05585C4.36628 7.41131 5.51983 6.00571 6.99987 5.01677ZM12 5C10.5166 5 9.0666 5.43987 7.83323 6.26398C6.59986 7.08809 5.63856 8.25943 5.07091 9.62988C4.50325 11.0003 4.35473 12.5083 4.64411 13.9632C4.9335 15.418 5.64781 16.7544 6.6967 17.8033C7.7456 18.8522 9.08197 19.5665 10.5368 19.8559C11.9917 20.1453 13.4997 19.9968 14.8701 19.4291C16.2406 18.8614 17.4119 17.9001 18.236 16.6668C19.0601 15.4334 19.5 13.9834 19.5 12.5C19.5 10.5109 18.7098 8.60322 17.3033 7.1967C15.8968 5.79018 13.9891 5 12 5Z" fill="white"/>
<path fill-rule="evenodd" clip-rule="evenodd" d="M12.9615 8.70738C12.8114 8.63594 12.4649 8.55669 12.0091 8.56244C11.5259 8.56978 11.0674 8.67398 10.704 8.96668C10.3622 9.24175 10.195 9.52825 10.1121 9.7316C10.0701 9.83476 10.0489 9.9185 10.0386 9.97058C10.0335 9.99653 10.0311 10.0143 10.0302 10.0221C10.03 10.0234 10.0299 10.0244 10.0299 10.0252C10.0067 10.3817 9.70176 10.655 9.34354 10.6378C8.98152 10.6205 8.70213 10.3129 8.71951 9.95088L9.375 9.98234C8.71951 9.95088 8.71949 9.95121 8.71951 9.95088L8.71958 9.94952L8.71965 9.94809L8.71982 9.94498C8.71994 9.9428 8.72008 9.94041 8.72025 9.93781C8.72058 9.93262 8.72101 9.92659 8.72157 9.91975C8.72268 9.90609 8.72429 9.88919 8.72662 9.8693C8.73128 9.82956 8.73885 9.77768 8.75112 9.71569C8.77563 9.59188 8.8192 9.42639 8.89674 9.23617C9.05299 8.85284 9.34476 8.37584 9.88066 7.94457C10.5586 7.39856 11.3488 7.25969 11.9902 7.25007L11.9916 7.25005C12.5601 7.24277 13.1283 7.33316 13.5256 7.5223M13.9688 10.0409C13.9688 9.29826 13.3989 8.91557 12.9615 8.70738L13.9688 10.0409ZM13.5256 7.5223C14.0258 7.76037 15.2813 8.46707 15.2813 10.0409C15.2813 11.6294 14.1884 12.362 13.3158 12.947C13.3057 12.9538 13.2957 12.9605 13.2857 12.9672C12.901 13.2252 12.6951 13.4677 12.5808 13.6809C12.4676 13.892 12.4219 14.1161 12.4219 14.375C12.4219 14.7374 12.1281 15.0312 11.7656 15.0312C11.4032 15.0312 11.1094 14.7374 11.1094 14.375C11.1094 13.9509 11.1869 13.5031 11.424 13.0608C11.66 12.6205 12.0314 12.2281 12.5546 11.8772C13.4932 11.2478 13.9688 10.8716 13.9688 10.0409" fill="white"/>
<path d="M11.7188 17.75C12.2365 17.75 12.6563 17.3303 12.6563 16.8125C12.6563 16.2947 12.2365 15.875 11.7188 15.875C11.201 15.875 10.7813 16.2947 10.7813 16.8125C10.7813 17.3303 11.201 17.75 11.7188 17.75Z" fill="white"/>
</svg>
