<svg width="24" height="23" viewBox="0 0 24 23" fill="none" xmlns="http://www.w3.org/2000/svg">
<path fill-rule="evenodd" clip-rule="evenodd" d="M1.5 0.5C1.91421 0.5 2.25 0.835786 2.25 1.25V21.5H22.5C22.9142 21.5 23.25 21.8358 23.25 22.25C23.25 22.6642 22.9142 23 22.5 23H2.25C1.85218 23 1.47065 22.842 1.18934 22.5607C0.908035 22.2794 0.75 21.8978 0.75 21.5V1.25C0.75 0.835786 1.08579 0.5 1.5 0.5Z" fill="white"/>
<path fill-rule="evenodd" clip-rule="evenodd" d="M5.4375 11C5.33395 11 5.25 11.0839 5.25 11.1875V18.3125C5.25 18.4161 5.33395 18.5 5.4375 18.5H7.3125C7.41605 18.5 7.5 18.4161 7.5 18.3125V11.1875C7.5 11.0839 7.41605 11 7.3125 11H5.4375ZM3.75 11.1875C3.75 10.2555 4.50552 9.5 5.4375 9.5H7.3125C8.24448 9.5 9 10.2555 9 11.1875V18.3125C9 19.2445 8.24448 20 7.3125 20H5.4375C4.50552 20 3.75 19.2445 3.75 18.3125V11.1875Z" fill="white"/>
<path fill-rule="evenodd" clip-rule="evenodd" d="M12.1875 8.75C12.0839 8.75 12 8.83395 12 8.9375V18.3125C12 18.4161 12.0839 18.5 12.1875 18.5H14.0625C14.1661 18.5 14.25 18.4161 14.25 18.3125V8.9375C14.25 8.83395 14.1661 8.75 14.0625 8.75H12.1875ZM10.5 8.9375C10.5 8.00552 11.2555 7.25 12.1875 7.25H14.0625C14.9945 7.25 15.75 8.00552 15.75 8.9375V18.3125C15.75 19.2445 14.9945 20 14.0625 20H12.1875C11.2555 20 10.5 19.2445 10.5 18.3125V8.9375Z" fill="white"/>
<path fill-rule="evenodd" clip-rule="evenodd" d="M18.9206 5.75C18.8171 5.75 18.7331 5.83395 18.7331 5.9375V18.3125C18.7331 18.4161 18.8171 18.5 18.9206 18.5H20.7956C20.8992 18.5 20.9831 18.4161 20.9831 18.3125V5.9375C20.9831 5.83395 20.8992 5.75 20.7956 5.75H18.9206ZM17.2331 5.9375C17.2331 5.00552 17.9886 4.25 18.9206 4.25H20.7956C21.7276 4.25 22.4831 5.00552 22.4831 5.9375V18.3125C22.4831 19.2445 21.7276 20 20.7956 20H18.9206C17.9886 20 17.2331 19.2445 17.2331 18.3125V5.9375Z" fill="white"/>
</svg>
